<svg xmlns="http://www.w3.org/2000/svg" xmlns:xlink="http://www.w3.org/1999/xlink" width="166" height="35" fill="none" xmlns:v="https://vecta.io/nano"><path d="M95.801 7.281h-3.587a.96.96 0 0 0-.891.622l-6.633 17.658c-.063.166-.21.176-.256.176s-.189-.017-.246-.186l-4.326-15.367a.95.95 0 0 0-.908-.668h-2.843a.95.95 0 0 0-.908.665l-4.984 15.47c-.056.173-.203.189-.249.189-.04 0-.193-.01-.256-.18L63.198 7.91c-.136-.376-.495-.628-.894-.628h-3.541c-.309 0-.602.153-.781.409s-.223.595-.113.891l9.442 25.298a.96.96 0 0 0 .891.622h3.378c.419 0 .785-.273.911-.675l4.389-14.057.007-.027c.083-.376.306-.512.499-.499.166.003.366.12.416.429l3.837 14.167a.95.95 0 0 0 .904.662h3.89c.396 0 .755-.253.891-.625l9.356-25.298a.98.98 0 0 0-.113-.891.95.95 0 0 0-.778-.409l.013.003z" fill="url(#A)"/><path d="M28.015 24.421l-1.556-6.124-.033-.123c-.751-3.521-2.726-6.287-5.865-8.226-3.089-1.945-6.477-2.547-10.067-1.782-3.717.795-6.583 2.859-8.508 6.138C.037 17.558-.482 21.063.446 24.717c.888 3.494 2.903 6.254 5.988 8.196C8.638 34.302 10.989 35 13.459 35c.954 0 1.925-.103 2.913-.312l.475-.113c2.866-.721 5.223-2.251 6.999-4.548.04-.053.093-.053.13-.047.03.007.086.027.103.096l1.3 3.747c.156.446.579.751 1.051.761l.545.003c.771 0 1.622-.017 2.673-.043a1.13 1.13 0 0 0 .891-.472 1.11 1.11 0 0 0 .16-.991l-2.69-8.658.007-.003zm-7.634 1.38c-1.187 2.085-2.876 3.325-5.167 3.787-2.184.432-4.163.037-6.048-1.204-1.869-1.23-3.082-2.979-3.604-5.197-.529-2.241-.223-4.272.934-6.207 1.167-1.948 2.813-3.165 5.037-3.727.658-.166 1.303-.249 1.938-.249 1.396 0 2.736.399 4.003 1.194 1.945 1.217 3.172 2.856 3.757 5 .632 2.327.353 4.489-.851 6.6v.003z" fill="url(#B)"/><path d="M161.279 11.643c-2.643-2.686-5.875-3.98-9.609-3.85-2.836.103-5.349.987-7.477 2.637-.053.04-.1.03-.133.013s-.07-.046-.07-.113V1.034c0-.572-.465-1.034-1.034-1.034h-3.125c-.572 0-1.034.465-1.034 1.034v20.188c-.09 3.714 1.247 6.955 3.976 9.639 2.623 2.58 5.712 3.89 9.173 3.89.17 0 .339 0 .509-.01 3.597-.136 6.669-1.523 9.13-4.116 2.483-2.62 3.744-5.762 3.744-9.339s-1.364-6.959-4.05-9.645v.003zm-1.23 9.413c.036 2.261-.692 4.182-2.231 5.871-1.506 1.652-3.305 2.51-5.496 2.623-2.264.106-4.186-.672-5.868-2.39-1.676-1.752-2.457-3.76-2.381-6.144.037-2.208.815-4.08 2.381-5.722 1.486-1.556 3.321-2.347 5.459-2.347 2.244 0 4.103.785 5.685 2.407 1.61 1.609 2.411 3.474 2.447 5.702h.004z" fill="url(#C)"/><path d="M53.955 32.683l-.658-2.254c-.073-.253-.2-.678-.592-.951-.316-.22-.678-.239-.891-.249l-1.785-.093c-.316-.017-.642-.033-.864-.15-.372-.193-.579-.718-.771-1.287L41.829 8.498c-.077-.226-.206-.605-.555-.858-.359-.259-.771-.256-1.021-.256l-2.7.013c-.226 0-.648.003-.997.283-.316.256-.625.765-.289 1.746l4.768 13.948.608 1.795 1.616 4.628c.672 1.792 1.629 3.727 3.631 4.488.924.352 1.918.366 2.716.376l1.702.01 1.35-.007c.226 0 .602-.007.938-.253.216-.16.562-.539.462-1.287-.017-.136-.05-.283-.096-.442h-.007z" fill="url(#D)"/><path d="M122.984 26.904c-.179 0-.346.08-.465.216-1.423 1.602-3.315 2.404-5.719 2.43-2.148.043-4.003-.645-5.675-2.114-1.251-1.097-2.088-2.477-2.497-4.096-.02-.076 0-.156.046-.219s.117-.096.193-.096h19.959c.508 0 .921-.419.921-.931v-1.745c0-3.255-1.221-6.224-3.634-8.824-2.474-2.617-5.456-4.06-8.864-4.289-3.757-.226-7.095 1.094-9.918 3.93-2.76 2.773-4.113 6.154-4.026 10.044.043 3.644 1.426 6.859 4.112 9.559 2.61 2.58 5.676 3.887 9.11 3.887h.18c2.806-.047 5.283-.871 7.564-2.517 1.589-1.147 2.866-2.593 3.81-4.316a.62.62 0 0 0-.542-.918h-4.555zm-14.203-9.083c.515-1.45 1.33-2.617 2.487-3.568 1.519-1.247 3.278-1.878 5.233-1.878h.176c2.065.037 3.847.695 5.3 1.948 1.09.944 1.901 2.125 2.41 3.511.04.11-.007.2-.03.233a.24.24 0 0 1-.199.106H109.01c-.106 0-.166-.063-.193-.1-.053-.073-.063-.166-.033-.256l-.003.003z" fill="url(#E)"/><defs><linearGradient id="A" x1="132.885" y1="-17.572" x2="17.795" y2="55.866" xlink:href="#F"><stop stop-color="#003398"/><stop offset="1" stop-color="#f0f"/></linearGradient><linearGradient id="B" x1="117.704" y1="-41.36" x2="2.614" y2="32.078" xlink:href="#F"><stop stop-color="#003398"/><stop offset="1" stop-color="#f0f"/></linearGradient><linearGradient id="C" x1="153.02" y1="13.987" x2="37.933" y2="87.425" xlink:href="#F"><stop stop-color="#003398"/><stop offset="1" stop-color="#f0f"/></linearGradient><linearGradient id="D" x1="124.985" y1="-29.95" x2="9.898" y2="43.488" xlink:href="#F"><stop stop-color="#003398"/><stop offset="1" stop-color="#f0f"/></linearGradient><linearGradient id="E" x1="145.633" y1="2.407" x2="30.545" y2="75.845" xlink:href="#F"><stop stop-color="#003398"/><stop offset="1" stop-color="#f0f"/></linearGradient><linearGradient id="F" gradientUnits="userSpaceOnUse"/></defs></svg>